<svg xmlns="http://www.w3.org/2000/svg" xmlns:xlink="http://www.w3.org/1999/xlink" width="344.1" height="150" viewBox="0 0 344.1 150"><defs><style>.a{fill:none;}.b{clip-path:url(#a);}.c{fill:#163259;}</style><clipPath id="a"><rect class="a" width="344.1" height="150"/></clipPath></defs><g transform="translate(172.05 75)"><g class="b" transform="translate(-172.05 -75)"><path class="c" d="M172.1,7.4a31.4,31.4,0,0,1,26.7,15,40.3,40.3,0,0,1,7.2-2.2,38.5,38.5,0,0,0-67.7,0,40.3,40.3,0,0,1,7.2,2.2,31.4,31.4,0,0,1,26.7-15"/><path class="c" d="M172.1,17.6a21.3,21.3,0,0,1,17.8,9.8,40.9,40.9,0,0,1,6.8-4.1,29,29,0,0,0-49.2,0,41,41,0,0,1,6.8,4.1,21.3,21.3,0,0,1,17.8-9.8"/><path class="c" d="M172.1,28.3a10.7,10.7,0,0,1,9.9,6.8,41.6,41.6,0,0,1,6.1-6.3,19,19,0,0,0-32.2,0,41.5,41.5,0,0,1,6.1,6.3,10.8,10.8,0,0,1,9.9-6.8"/><path class="c" d="M172.1,30.5a8.6,8.6,0,0,0-8.3,6.7,41.9,41.9,0,0,1,2.2,3.6,40.6,40.6,0,0,1,12.2,0,41.2,41.2,0,0,1,2.2-3.6,8.6,8.6,0,0,0-8.3-6.7"/><path class="c" d="M172.2,45.2A36.2,36.2,0,0,0,139,67.4a36.932,36.932,0,0,0,3.9,3.2,31.3,31.3,0,0,1,59.1.6q2-1.5,3.9-3.1a36.2,36.2,0,0,0-33.6-22.9"/><path class="c" d="M180.4,41.4a40.2,40.2,0,0,1,7.2,2.2,31.4,31.4,0,0,1,26.7-15,31,31,0,0,1,9,1.3c0-.2,0-.3,0-.5a52.1,52.1,0,0,0-.5-7.2,38.5,38.5,0,0,0-42.4,19.2"/><path class="c" d="M189.7,44.5a40.9,40.9,0,0,1,6.8,4.1,21.3,21.3,0,0,1,17.8-9.8,21,21,0,0,1,7.8,1.5,51.6,51.6,0,0,0,1.1-8.1,28.8,28.8,0,0,0-8.9-1.4,29.2,29.2,0,0,0-24.6,13.7"/><path class="c" d="M198.2,50a41.6,41.6,0,0,1,6.1,6.3,10.7,10.7,0,0,1,9.9-6.7,10.5,10.5,0,0,1,4.5,1,51.1,51.1,0,0,0,2.8-8,18.8,18.8,0,0,0-7.3-1.5,19.1,19.1,0,0,0-16,8.9"/><path class="c" d="M206,58.5a41.4,41.4,0,0,1,2.2,3.6l3.7-.4a51.2,51.2,0,0,0,5.9-9.2,8.4,8.4,0,0,0-3.5-.8,8.6,8.6,0,0,0-8.3,6.7"/><path class="c" d="M163.7,41.4a40.2,40.2,0,0,0-7.2,2.2,31.4,31.4,0,0,0-26.7-15,31,31,0,0,0-9,1.3v-.5a52.1,52.1,0,0,1,.5-7.2,38.5,38.5,0,0,1,42.4,19.2"/><path class="c" d="M154.4,44.5a40.9,40.9,0,0,0-6.8,4.1,21.3,21.3,0,0,0-17.8-9.8,21,21,0,0,0-7.8,1.5,51.6,51.6,0,0,1-1.1-8.1,28.8,28.8,0,0,1,8.9-1.4,29.2,29.2,0,0,1,24.6,13.7"/><path class="c" d="M145.9,50a41.6,41.6,0,0,0-6.1,6.3,10.7,10.7,0,0,0-9.9-6.7,10.5,10.5,0,0,0-4.5,1,51.1,51.1,0,0,1-2.8-8,18.8,18.8,0,0,1,7.3-1.5,19.1,19.1,0,0,1,16,8.9"/><path class="c" d="M138.1,58.5a41.4,41.4,0,0,0-2.2,3.6l-3.7-.4a51.2,51.2,0,0,1-5.9-9.2,8.4,8.4,0,0,1,3.5-.8,8.6,8.6,0,0,1,8.3,6.7"/><path class="c" d="M47.9,101a1.8,1.8,0,0,1,.1-.7.8.8,0,0,1,.9-.6l1.1-.2h0q.15,0,.6.6c.3.4.4.4.4,1.3v1.2a14.837,14.837,0,0,0,.1,2.3c.1.3.2,1,.7,1.3a3.4,3.4,0,0,0,1.2.2h1.2a4.3,4.3,0,0,1,1.8.8,1.7,1.7,0,0,1,.2.8.9.9,0,0,1-.2.6c-.1.2-.1.2-2.1.4H52.6l-.4.2a1.3,1.3,0,0,0-.7,1.2c0,.3,0,1.4-.1,2.5v.9l.6.4a8.7,8.7,0,0,1,1.3,1.2,34.9,34.9,0,0,0,4.7,3.4,20.8,20.8,0,0,0,3.1,1.6l1,.3,1,.3h.8l.4.2,1.3.4a3.8,3.8,0,0,1,1.7,1.4c.3.3.5.5.5.7h0a1,1,0,0,0-.1.4.6.6,0,0,1-.2.4l-.2.3c0,.1-.1.1-.3.1h-.9l-2-.5a20.7,20.7,0,0,1-3.7-1.4,70.6,70.6,0,0,1-7.4-6.2l-1.6-1.5a2.6,2.6,0,0,0-.3,1.2,14.4,14.4,0,0,0-.2,3.2v1c0,.9,0,1,.2,1a8.3,8.3,0,0,1,2.4,1.3,1.458,1.458,0,0,1,.5.8.5.5,0,0,1-.1.3,3.5,3.5,0,0,1-1.9.7h-.9v4.5c0,2.5-.3,3.5-1,4.3l-.4.4-.6-.4c-.6-.5-.6-.5-1-1.6a5.1,5.1,0,0,1-.4-1.4,1.7,1.7,0,0,1,.1-.5,9.7,9.7,0,0,0,.4-3.3v-2.2h-.6l-.8-.2a1.208,1.208,0,0,1-.7-.9l1.1-.5,1-.4a25.3,25.3,0,0,0,.1-2.8c0-1.5.1-2.8.1-2.8a8.9,8.9,0,0,0,.1-1.7c0-.3,0-.4,0-.4l-.6.8-.7,1-.2.3-.7.9a34.3,34.3,0,0,1-4.1,5.1,4.7,4.7,0,0,1-1.7,1.4.1.1,0,0,0-.1.1,1.9,1.9,0,0,1-.7.8l-.9.6-1.2.8-.8.5-.5.2h0a1.49,1.49,0,0,1,.6-.7,41.4,41.4,0,0,0,6.2-7.5l1-1.6.3-.5.4-.7a19.1,19.1,0,0,0,1.1-2.1l1.2-2.1a26.6,26.6,0,0,0,1.1-2.7h0l-.9.4h-.2L45,111.6h-.7a34.9,34.9,0,0,0-4,2.3,1.3,1.3,0,0,1-.9-.2c-.4-.3-.5-.4-.5-.9a1.3,1.3,0,0,1,.4-1c1-1.2,2-1.7,5.4-3.3l4.2-2.1v-.6a9.1,9.1,0,0,0-.6-3.1,6,6,0,0,1-.4-1.9"/><path class="c" d="M86.9,105.1h0a.4.4,0,0,1,0-.2.2.2,0,0,1,0-.1h.2l.7.2c.8.4.9.5.9,1.7V109l.4.4a1.1,1.1,0,0,1,.5.9,2.6,2.6,0,0,1-.5,1.3l-.2.4-.3.6a3.2,3.2,0,0,0-.3,1.5h0a16.1,16.1,0,0,1-.3,2.7,1.5,1.5,0,0,0,0,.4v.1s2-2.2,2.3-2.6l.4-.5h0a3.3,3.3,0,0,1-.4,1.1l-1.7,3.3-.3.5-.2.4a10.9,10.9,0,0,0-1.2,5,10.2,10.2,0,0,0,.2,2v1c.1.7.3,1.7.3,1.8a1.8,1.8,0,0,1,.1.6,1.7,1.7,0,0,1,0,.4c0,.4-.2.5-.5.5h-.2c-.3,0-.5-.2-1-.9a11.5,11.5,0,0,1-1-3.5v-.2a.3.3,0,0,0,0-.2h0v-.4a1,1,0,0,1,0-.3c0-.3-.1-.6-.2-.6l-.6.6-.4.5-.6.9a3.7,3.7,0,0,0-1.1,1.8c-.1.5-.3.7-.8.7s-.7-.3-.7-.4a.5.5,0,0,0-.2-.3,5.7,5.7,0,0,1-.4-1,3.1,3.1,0,0,1-.3-1v-.3a.9.9,0,0,1,.6-.5,1.5,1.5,0,0,0,.8-.9l.6-.9.4-.8.3-.5.3-.4.2-.4.5-1a36.7,36.7,0,0,0,1.9-4.6A2.8,2.8,0,0,0,85,115c0-.1,0-.1-.1-.1h-.2l-.3.3a8.3,8.3,0,0,1-1.7,1.2l-.8.2h-1c-.3-.1-.4-.2-.4-.5a1.9,1.9,0,0,1,.1-.5,15.7,15.7,0,0,1,3.1-3.4,9.7,9.7,0,0,0,2.8-2.8c.3-.5.3-.7.4-2v-.7a3.3,3.3,0,0,0-.1-1.2m11.7-2.2a2.9,2.9,0,0,1-.5-.8c0-.1.3-.4.9-.7l1.1-.7h.3a6,6,0,0,1,2.2.6l.6.2a1.5,1.5,0,0,1,1.2,1.3c0,.4-.3.6-1,.6a3.2,3.2,0,0,0-1.7.7l-.4.3-.2.2h-.1v.2a.2.2,0,0,0,0,.1h.1c.1.2.2.3.4.3l.6-.2a9.8,9.8,0,0,1,2.4-.8h.6a1.5,1.5,0,0,1,1.1,1.1h0a.669.669,0,0,1-.7.6h-.2l-1.4.3a4.049,4.049,0,0,0,1.1.9,8.7,8.7,0,0,1,1.6,1.2l.4.3a10.3,10.3,0,0,0,4.2,2.2,8.3,8.3,0,0,1,2.5,1,2.3,2.3,0,0,1,1,1.4c0,.4-.4.7-1,.7H113l-.6-.2a17.3,17.3,0,0,1-3.2-1.4,8.9,8.9,0,0,1-1.6-1.2l-.6-.5-1.6-1.4-1.5-1.3-.8-.7-.7-.6-.3.2h-.7a1.1,1.1,0,0,0-.7.3,4.1,4.1,0,0,0-.6,1.3h0v.3l-.2.5h0a1.4,1.4,0,0,1-.1.4v.4h0l.7-.2,1.5-.4h.4l1.2-.3h.1l.8.3c.7.4,1,.7,1,1a.7.7,0,0,1-.4.5H105l-.9.6-.8.6.6.3c.6.3.6.3.7.7v.2c0,.2,0,.3-.1.3h-.9a7.5,7.5,0,0,0-2.1.6h-.6c-.4-.1-.4-.3-.6-1.2h0c0-.1,0-.1.2-.3l1-.9a6.7,6.7,0,0,0,1-1.1H102l-1.9.3h0c-.3,0-.7-.2-.7-.3h0c-.1,0-.3.2-.4.6a1.4,1.4,0,0,0-.3.7v.6a.7.7,0,0,0,0,.3,10.9,10.9,0,0,0,.4,1.8,9.8,9.8,0,0,1,.4,1.9c0,.3-.1.4-.3.4h-.3l-.3-.4v-.2a14,14,0,0,1-.9-2.8v-.4h0l-.6.5-.8.6-.3.2-.2.2-.4.3h-.3l-.7.2H92.5c-.7,0-1.4-.3-1.4-.7s0-.4.6-.5a7.6,7.6,0,0,0,4.5-3.2,12.7,12.7,0,0,0,2-3.1h-.5a8.9,8.9,0,0,0-1.7,1.3,1.5,1.5,0,0,1-1,.4.9.9,0,0,1-.7-.6v.8a1.5,1.5,0,0,1,.1-.4,1.6,1.6,0,0,1,.4-.6,20.7,20.7,0,0,0,3.2-2.4,10.336,10.336,0,0,0,1.2-1.4h0c0-.2.3-.7.6-.7h.1c.1,0,.3-.4.3-.6l-.4-.2a1.8,1.8,0,0,1-1-.7m-3.7,25.3H95c-.5-.1-1.7-2.3-2.1-4a16.7,16.7,0,0,1-.5-3.5,4,4,0,0,1,0-.7,1.1,1.1,0,0,1,.2-.6l.4.6v.2a7.3,7.3,0,0,1,1.2,3.1l.3,1.4a4.6,4.6,0,0,1,.3.8,3.3,3.3,0,0,0,.4.9l.2.4.3.9c0,.3-.4.5-.7.5m6.8-10.9.7-.2,3.6-1.2h1a3.2,3.2,0,0,1,1.5.4,5.8,5.8,0,0,1,2.3,2.3v2.5a20.7,20.7,0,0,1-1.4,8.4,4.3,4.3,0,0,1-.6,1.1h-.1l-.2.3-.3.4-.2.3a5.3,5.3,0,0,1-1,1.1,1.6,1.6,0,0,1-.9.3c-.6,0-1.4-.6-1.9-1.7v-.2l-.3-.6-.8-.8a4.9,4.9,0,0,1-1.4-1.6h.3l2.8.9.4.2h.1c.2,0,.7-.6.9-1.3v-.2l.2-.4.2-.9.5-1.2v-1.6a2.4,2.4,0,0,1,.1-.6,18,18,0,0,0,.2-3.3,6.7,6.7,0,0,0-.1-1.7,2.8,2.8,0,0,0-1.4-.3h-.7l-3.7.9-.9.3-.6.3-1,.4-.9.3h0a1.2,1.2,0,0,1,.3.9v.5l.7-.6a9.3,9.3,0,0,1,2.6-1.6h1.3l.6.3a1.4,1.4,0,0,1,.3,1,2.2,2.2,0,0,1-.3,1.3,3.3,3.3,0,0,0-.4.9.4.4,0,0,0,0,.2c0,.1.1.2.6.3h.1l.8.2.3.2c.2,0,.3.3.3.6a.8.8,0,0,1-.1.4l-.4.3-.5.2H103c-.6,0-.9-.1-1.3-1.1a1.9,1.9,0,0,1-.3-1,2.1,2.1,0,0,1,.2-.9,4,4,0,0,0,.5-1.3h0a5.2,5.2,0,0,0-1.9,1.2,3.6,3.6,0,0,0-1.2,2.4c0,.5-.1.7-.4.7h-.1a3.1,3.1,0,0,1-1.2-1.8h0a1.4,1.4,0,0,1,0-.3,2.5,2.5,0,0,0,.1-.5v-1c0-.3.1-.9.1-1a1.6,1.6,0,0,0,0-.4h0v-.2h-.2a1.1,1.1,0,0,1-.7-.4c-.3-.2-.4-.4-.4-.5l.2-.2,4.6-1.6a.112.112,0,0,0,.1-.2h.1Z"/><path class="c" d="M5.5,118.7a1.1,1.1,0,0,0,.8.2h.2l2.8-.4c2.5-.3,2.7-.3,2.8-.5l.7-.5c-.1-.6-1.3-1.1-2.6-1.1H9.9l-.6-.2a2.4,2.4,0,0,1-1.1-.5H7.4a.6.6,0,0,0-.4.5H6.8a5,5,0,0,0-1.1.8l-.8.7a.6.6,0,0,0,0,.4c0,.2.1.4.2.4l.4.2"/><path class="c" d="M15.5,107.1a9.4,9.4,0,0,0-4.1-1.1,30.9,30.9,0,0,0-5,1.4H6.3L4,108.9l-.4.3a4.338,4.338,0,0,0,1.8.4l1.4-.4a4.1,4.1,0,0,1,1.6-.6L12,108c1.3-.1,1.7.1,1.8,1.1a9.286,9.286,0,0,1,.1,1.3V125a6,6,0,0,1,0,1,1.7,1.7,0,0,1-.1.7,16.1,16.1,0,0,0-3,0l-2.7.5-1.5.2-1.2.3H4.8c-.3-.9-.5-2-.8-3.3v-.3l-.2-1.3V122h0c0-.4,0-.4-.1-.6v-.3l-.4-6.5-.3-2v-1.4a4.1,4.1,0,0,0-.9-2.1,5.475,5.475,0,0,0-1.3-.7l-.7-.2H0a11.7,11.7,0,0,1,1.1,4.5c.1.7.2,2.2.4,5V119c.8,7.1.8,7.1.9,7.7a14.6,14.6,0,0,1,.1,1.7v.2c0,.6.1.7.8,1.3s1.1.9,1.4.9.3,0,1.2-.6l.5-.2h.2l.7-.2,4.2-.6c1.5-.1,1.8-.1,2.1.3s1.1,1.4,1.7,1.3.4-.1.6-.5a6.9,6.9,0,0,0,.3-2.1q.1-1.9.1-4.4V111.4c.1-.7.2-1.1.2-1.2a.5.5,0,0,1,.2-.4c.5-.5.5-.6.5-.9a2.5,2.5,0,0,0-1.7-1.8"/><path class="c" d="M242.2,113.1a10.6,10.6,0,0,1,2.8-3.8,10.4,10.4,0,0,0,2.3-2.3,28,28,0,0,1,6.1-6,5,5,0,0,1,2.3-.5,5.2,5.2,0,0,1,2.1.4c1.8.9,4.5,4.9,5.1,8.7.2,1.3.7,3.5,1,5a19,19,0,0,1,.5,4.4c0,.9,0,2.1-.1,3.6a33,33,0,0,1-1.5,10.7,68.5,68.5,0,0,1-5.8,11.3c-.5.7-2.6,3.1-3.8,4.4l-.4.5-.4.5h-.1a13.2,13.2,0,0,1,1-2.6c2.1-4.4,4.8-14.7,5.8-22.2a51.1,51.1,0,0,0,.3-6.5,39.5,39.5,0,0,0-.1-4.1c-.8-7.7-1.7-10.7-2.9-10.7s-4.5,4.3-6.7,7.7a63.4,63.4,0,0,1-4.2,5.1,1.6,1.6,0,0,1-1.1.4H244c-.8-.1-1.1-.3-1.7-1.5a3.1,3.1,0,0,1-.5-1.3.6.6,0,0,1,.1-.4.9.9,0,0,0,.2-.5Zm10.9-24.3a1.026,1.026,0,0,0-.5-.7c-.1,0-.4-.4-.6-.8a2.5,2.5,0,0,1-.3-1,2,2,0,0,1,.7-1.7l.5-.2a6.8,6.8,0,0,1,1.9.8c2.1,1.2,3.7,2.6,3.8,3.9v.3c0,1.9-1.5,3.4-4.3,6.2l-.6.6-1.6,1.7-.3.4-.2.2h-.1a33.1,33.1,0,0,1,2.2-5.6,4.3,4.3,0,0,0,.4-.9l.2-.4V91a3.1,3.1,0,0,0,.3-1q0-.3-.6-.3a2.3,2.3,0,0,1-1.1-.9"/><path class="c" d="M315.2,120.6a19.8,19.8,0,0,1,.2-2.4,44.1,44.1,0,0,1,1.1-5.3c.7-2.4,3.6-9.1,4.6-10.2a.5.5,0,0,1,.5-.3h.3a1.5,1.5,0,0,1,.5,1.2,18.6,18.6,0,0,1-1.3,4.7,58.7,58.7,0,0,0-1.9,5.8,29.2,29.2,0,0,0-.7,6.6,12.2,12.2,0,0,0,.2,2.6l.3,1.3,1.1-.5,2.4-.7,3.1-.7a32.3,32.3,0,0,1,8.5-1.3h1.7c3.4.1,5.6.6,5.6,1.1a.4.4,0,0,0,.4.3,2.9,2.9,0,0,1,1.3,1,3.6,3.6,0,0,1,.9,2.3,4.4,4.4,0,0,1-.5,1.9A46.5,46.5,0,0,1,333,139.6l-1.1.8-.5.4-.5.4h-.2l-2.4,1.7c-1.9,1.3-4.5,2.4-5.5,2.4h-.5l-.9.2-.9.3h-.2c0-.1.4-.5,1.3-1.1a140.491,140.491,0,0,0,11-10.1l1.7-1.8a10.4,10.4,0,0,0,1.3-1.7,10.9,10.9,0,0,1,1.5-2.1,12.2,12.2,0,0,0,1.1-1.8l1-1.7a.9.9,0,0,0,.2-.5c0-.4-.7-.5-2.3-.6s-4.8.4-9.1,2.2-5.2,2.3-5.2,3.4-.4,1.3-1.4,1.6h-.2c-.5,0-1.1-.5-2.6-1.7s-2.2-2-2.2-2.8a23.1,23.1,0,0,0-.7-3.5,9.7,9.7,0,0,1-.5-2.9m7.3-36.1a1.7,1.7,0,0,1,.9-.3c.6,0,1.3.5,2.5,1.7s2.1,2.5,2.1,3.6a2.5,2.5,0,0,1-1.7,2.2,8.2,8.2,0,0,0-2.1,1.3c-.6.5-.9.8-1.2.8s-.3-.1-.3-.4a5.1,5.1,0,0,1,.5-1.7,6.3,6.3,0,0,0,.5-2.3,5,5,0,0,0-1-3l-.8-1.3Z"/><path class="c" d="M151.6,109.5c1.5,1.4,1.9,1.7,2.7,1.7s2-.4,7.4-3.1l4.1-2.2,1.2-.6a5.5,5.5,0,0,1-.1-.9l.2-3.8c-.1-2.9-.1-4.8-.1-5.4-.1-3.1-.4-3.6-3.1-5,.5-1.5,1.2-2.1,2.7-2.1a8.1,8.1,0,0,1,4.1,1.1l2,1.3a2.4,2.4,0,0,1,.2,1.1c0,.4-.3.7-1.1,1V95a23,23,0,0,0-.9,7.2c0,.7.2,1,.7,1s.3,0,2.5-1.4a2.1,2.1,0,0,1,1.2-.3,5.3,5.3,0,0,1,2.9,1.1c-.1,1.6-.1,1.6-2.9,2.5l-2.9,1.5-1.2.5v.5l.8.4c1.2.6,1.6,1,1.6,1.9s0,.7-1.4,2.2a12.4,12.4,0,0,0-1.4,2.2q-.2,1.1-.4,2.8c2.8-1.3,6.3-3.6,7-4.6h.2c-.6,1.8-1.7,3.2-4.9,5.8a9.7,9.7,0,0,0-2.5,2.2,12.8,12.8,0,0,0-.1,1.4v21a3.3,3.3,0,0,1-.2.8,8.141,8.141,0,0,1-.2.9,1.929,1.929,0,0,1-1.4,1.6h-.9a3.8,3.8,0,0,1-.9-.9,3,3,0,0,1-.2-.7V144l-1.3-4.1a4.1,4.1,0,0,1,.3-1.1c1.6-2.9,2-6.2,2-14.3a5.4,5.4,0,0,0-.2-1.9l-.5.2-.2.2-2.3,2.1-2.7,3c-1.4,2.1-1.6,2.3-2.1,2.5l-1,.4c-1,0-2.1-2.5-2.1-4.7a2.1,2.1,0,0,1,.9-1.7c.1-.1.1-.1,1.8-.3h.1l1.1-.7,1.4-.9,5.3-8c.7-1,.7-1,.7-2.9a11.7,11.7,0,0,0-.1-2.4l-.4.3-1.7,1.2-1.4.9-4.3,4.1a2.6,2.6,0,0,1-1.7.9c-.7,0-1.7-.4-3.5-1.6a5.9,5.9,0,0,1-2.7-2.6Zm51.6,22.3h.8c.7-.1.9-.2.9-.7s-2.5-5.4-3.5-5.4a25.2,25.2,0,0,0-5.6,2.4l-2.2,1.2-3.5,1.5a2.5,2.5,0,0,0-.9.8c-2,2.2-2,2.2-3,2.2-3.6,0-5.6-1.7-5.6-4.8,0-.7,0-.7,1.9-2.2l.4-.7.9-.9.4-.8a4.9,4.9,0,0,1,.8-.9l2.2-4.1,1.2-2.2,1.4-2.1,1.2-2,1-1.3,1.3-2.1,1.4-1.7.8-1.2.7-.7,1.4-1.8.9-1.2c2.2-3.3,2.2-3.3,2.2-3.8s-.7-1.2-1.7-1.9l-1.9-.7-1.2-.5c1.7-1.3,2.1-1.5,3.4-1.5a12,12,0,0,1,5.6,2.3l1.7,1.2c1,.4,1.3.8,1.3,1.7a1.9,1.9,0,0,1-.5,1.3l-4,1a3.8,3.8,0,0,0-1.4.6l-1.7,1.7-2.2,2.1-1.2,1.2c-1.9,1.8-4.3,4.8-4.3,5.4a6.3,6.3,0,0,0,.3,1.4,2.4,2.4,0,0,1,.1.8c0,1.4,0,1.5-1.4,3.5l-.9,1.4-.9,1.3-1.1,2.2-1.5,3a5,5,0,0,0-.5,1.4l13.8-4.1a12.9,12.9,0,0,0-2.2-3.1l-.8-.8-.7-.6-.5-.7h.1l.9.2a5.6,5.6,0,0,1,1.9.5l.9.5a17.755,17.755,0,0,1,7.5,7.6c2.2,3.8,3,4.4,3,6.2,0,0-.1,1-.5,3.1h-1.3a1.5,1.5,0,0,1-1.2-.4l-1.1-.7-1.6-1.6-1.4-1.4a1.7,1.7,0,0,1-.6-.8Zm-18.1-20.3a6.6,6.6,0,0,1-3.7-5.6,11.9,11.9,0,0,1,.6-4.7c1.2,1.8,2.4,2.9,3.3,2.9a7.844,7.844,0,0,0,4.3-2.5l-.3,1.2-.4.7-.4.8A15.9,15.9,0,0,0,187,109v.9l-1.6,1.6Z"/></g></g></svg>