<svg xmlns="http://www.w3.org/2000/svg" xmlns:xlink="http://www.w3.org/1999/xlink" width="313.6" height="60" viewBox="0 0 313.6 60"><defs><style>.a{fill:none;}.b{clip-path:url(#a);}.c{fill:#fff;}</style><clipPath id="a"><rect class="a" width="313.6" height="60"/></clipPath></defs><g transform="translate(156.8 30)"><g class="b" transform="translate(-156.8 -30)"><path class="c" d="M43.6,15.4a1.6,1.6,0,0,1,.1-.6.7.7,0,0,1,.8-.5l1-.2h.1c.1,0,.3.2.6.5s.3.4.3,1.2v1a12.786,12.786,0,0,0,.1,2.1c.1.3.1.9.6,1.2a3.1,3.1,0,0,0,1.1.2h1.1a3.9,3.9,0,0,1,1.7.7,1.5,1.5,0,0,1,.2.7.8.8,0,0,1-.2.5c-.1.2-.1.2-1.9.3H48l-.4.2a1.2,1.2,0,0,0-.6,1c0,.2,0,1.3-.1,2.3v.8l.6.4,1.2,1A31.9,31.9,0,0,0,53,31.3a19,19,0,0,0,2.8,1.4l.9.3.9.3h.7l.4.2,1.2.3a3.5,3.5,0,0,1,1.6,1.3c.3.3.4.5.4.6h0a.9.9,0,0,0-.1.4.5.5,0,0,1-.2.4l-.2.2c0,.1-.1.1-.2.1h-.8l-1.9.2a19,19,0,0,1-3.4-1.3,64.2,64.2,0,0,1-6.8-5.6l-1.4-1.4a2.4,2.4,0,0,0-.2,1.1,13.1,13.1,0,0,0-.2,2.9v.9c0,.8,0,.9.2.9a7.5,7.5,0,0,1,2.2,1.2c.3.3.5.5.5.7a.4.4,0,0,1-.1.3,3.2,3.2,0,0,1-1.8.7h-.8v4.1c0,2.2-.2,3.2-.9,3.9l-.3.4-.5-.4c-.5-.4-.5-.5-.9-1.5a4.7,4.7,0,0,1-.4-1.3,1.6,1.6,0,0,1,.1-.4,8.9,8.9,0,0,0,.3-3v-2h-.5l-.7-.2c-.3-.2-.7-.6-.7-.8l1-.4.9-.4a23,23,0,0,0,.1-2.6c0-1.4.1-2.5.1-2.6a8.1,8.1,0,0,0,.1-1.6c0-.2,0-.4,0-.4l-.6.7-.6.9-.2.3-.6.8a31.3,31.3,0,0,1-3.7,4.6A4.3,4.3,0,0,1,37.1,37a.1.1,0,0,0-.1.1,1.7,1.7,0,0,1-.7.7l-.8.5-1.1.7-.7.5-.4.2h0c0-.1.2-.3.5-.6a37.7,37.7,0,0,0,5.7-6.8l.9-1.4.3-.5.3-.6a17.8,17.8,0,0,0,1-1.9L43,26a24.5,24.5,0,0,0,1-2.4h0l-.8.3H43L41,25h-.6a31.8,31.8,0,0,0-3.7,2.1,1.2,1.2,0,0,1-.8-.2.735.735,0,0,1-.4-.8,1.2,1.2,0,0,1,.4-.9c.9-1,1.8-1.6,4.9-3l3.8-1.9V20a8.3,8.3,0,0,0-.5-2.8,5.4,5.4,0,0,1-.4-1.8"/><path class="c" d="M79.2,19.1h0a.4.4,0,0,1,0-.2.2.2,0,0,1,0-.1h.2l.7.2c.7.4.8.4.8,1.6v2.1l.4.4a1,1,0,0,1,.4.8,2.3,2.3,0,0,1-.4,1.2l-.2.4-.3.5a2.9,2.9,0,0,0-.3,1.4h0a14.7,14.7,0,0,1-.3,2.4,1.4,1.4,0,0,0,0,.4v.1a31.8,31.8,0,0,0,2.1-2.4l.4-.4h0a3,3,0,0,1-.3,1l-1.5,3-.2.5-.2.3a9.5,9.5,0,0,0-.9,2.7,9.3,9.3,0,0,0-.2,1.8,9.2,9.2,0,0,0,.2,1.8v.9a6.189,6.189,0,0,0,.3,1.6,1.7,1.7,0,0,1,.1.6,1.5,1.5,0,0,1,0,.4c0,.3-.1.4-.4.5h-.2c-.3,0-.4-.2-.9-.8a10.4,10.4,0,0,1-.9-3.2v-.2a.3.3,0,0,0,0-.2h0v-.4a1,1,0,0,1,0-.3c0-.3-.1-.6-.2-.6l-.5.6-.4.4-.6.8a3.3,3.3,0,0,0-1,1.6c-.1.5-.3.6-.7.6a.587.587,0,0,1-.6-.4l-.2-.3-.4-.9a2.8,2.8,0,0,1-.3-.9v-.3a.8.8,0,0,1,.5-.4,1.4,1.4,0,0,0,.7-.8l.6-.8.4-.7.3-.5.2-.3.2-.4.5-.9a33.5,33.5,0,0,0,1.7-4.2,2.6,2.6,0,0,0-.1-1.1c0-.1,0-.1-.1-.1h-.2l-.3.2a7.6,7.6,0,0,1-1.6,1.1l-.7.2h-.9c-.3-.1-.4-.2-.4-.4a1.7,1.7,0,0,1,.1-.5,14.3,14.3,0,0,1,2.8-3.1A8.9,8.9,0,0,0,79,22.6c.3-.5.3-.7.3-1.8v-.7a2.9,2.9,0,0,0-.1-1m10.6-2a2.7,2.7,0,0,1-.4-.7c0-.1.3-.3.8-.6l1-.6h.3a5.5,5.5,0,0,1,2,.6l.5.2a1.4,1.4,0,0,1,1.1,1.2c0,.4-.3.5-.9.5a2.9,2.9,0,0,0-1.6.6l-.4.3-.2.2h-.1V19a.2.2,0,0,0,0,.1H92q.15.3.3.3l.5-.2a8.9,8.9,0,0,1,2.2-.7h.5a1.4,1.4,0,0,1,1,1h0c0,.3-.2.5-.6.5h-.2l-1.3.2c0,.1.4.4,1,.8a7.9,7.9,0,0,1,1.5,1.1l.4.3a9.4,9.4,0,0,0,3.8,2,7.6,7.6,0,0,1,2.2.9,2.1,2.1,0,0,1,.9,1.3.808.808,0,0,1-.9.7h-1.1A15.8,15.8,0,0,1,99.3,26l-1.4-1-.6-.5-1.5-1.3L94.5,22l-.7-.6-.6-.5-.3.2h-.7a1,1,0,0,0-.6.3,3.8,3.8,0,0,0-.5,1.2h0V23l-.2.4h0a1.3,1.3,0,0,1-.1.4v.4h0l.6-.2,1.4-.3h.4l1.1-.3h.1l.7.3c.6.3.9.7.9.9a.6.6,0,0,1-.3.5h-.1l-.8.5-.7.6.5.3c.5.2.6.3.6.6h0c0,.2,0,.2-.1.3H94a6.8,6.8,0,0,0-1.9.5h-.5c-.3-.1-.4-.3-.5-1.1h0l.2-.3L92,26l.9-1h-.5l-1.8.3h0c-.2,0-.6-.2-.6-.3h0c-.1,0-.3.2-.4.5a1.3,1.3,0,0,0-.2.6v.5a.7.7,0,0,0,0,.2,9.8,9.8,0,0,0,.4,1.7,9,9,0,0,1,.4,1.8c0,.3-.1.4-.2.4h-.2l-.3-.4v-.2a12.8,12.8,0,0,1-.8-2.5v-.4h0l-.5.4-.7.6-.2.2-.2.2-.4.3h-.3l-.6.2H84.3c-.6,0-1.3-.3-1.3-.6s0-.4.5-.4a7,7,0,0,0,4.1-2.9,11.6,11.6,0,0,0,1.8-2.8H89A8.1,8.1,0,0,0,87.4,24a1.3,1.3,0,0,1-.9.4.8.8,0,0,1-.6-.5v-.4a1.235,1.235,0,0,1,.5-.9,19,19,0,0,0,2.9-2.2,5.628,5.628,0,0,0,1-1.3h0c0-.2.3-.6.5-.6h.1c.1,0,.3-.4.3-.5l-.4-.2a1.6,1.6,0,0,1-.9-.6m-3.4,23h-.1c-.5-.1-1.5-2.1-1.9-3.7a15.2,15.2,0,0,1-.4-3.1,3.7,3.7,0,0,1,0-.7,1,1,0,0,1,.2-.5l.4.5v.2a6.7,6.7,0,0,1,1,2.8L86,37l.2.7a3,3,0,0,0,.3.8l.2.4.3.8c0,.2-.3.4-.7.4m6.2-10,.6-.2,3.3-1.1h.9a2.9,2.9,0,0,1,1.4.4,5.3,5.3,0,0,1,2.1,2.1v2.3a18.9,18.9,0,0,1-1.3,7.6,3.9,3.9,0,0,1-.5,1h-.1l-.2.2-.2.3-.2.3-.9,1-.8.2c-.6,0-1.3-.6-1.7-1.6v-.2l-.2-.6-.7-.7a4.4,4.4,0,0,1-1.3-1.5H93l2.6.8.4.2h.1c.2,0,.6-.5.8-1.2v-.2l.2-.4.2-.8.4-1.1V35.8a2.2,2.2,0,0,1,.1-.6,16.5,16.5,0,0,0,.2-3,6.1,6.1,0,0,0-.1-1.6,2.6,2.6,0,0,0-1.3-.2h-.7l-3.4.8-.8.3-.6.2-.9.4-.8.3h0a1.1,1.1,0,0,1,.3.8c0,.3,0,.5,0,.5l.6-.5a8.5,8.5,0,0,1,2.7-1h1.2l.6.2a1.3,1.3,0,0,1,.3.9,2,2,0,0,1-.3,1.2,3,3,0,0,0-.4.8.4.4,0,0,0,0,.2c0,.1.1.2.5.3H95l.7.2.3.2c.2,0,.3.3.3.6a.7.7,0,0,1-.1.4l-.4.3-.5.2H93.9c-.6,0-.8-.1-1.2-1a1.7,1.7,0,0,1-.3-.9,1.9,1.9,0,0,1,.2-.8,3.7,3.7,0,0,0,.4-1.2h0a4.7,4.7,0,0,0-1.7,1.1,3.3,3.3,0,0,0-1,2.2c0,.4-.1.6-.4.6h-.1a2.8,2.8,0,0,1-1-1.7h0a1.3,1.3,0,0,1,0-.3,2.3,2.3,0,0,0,.1-.5V33.5a1.5,1.5,0,0,0,0-.4h0v-.2H89a1,1,0,0,1-.6-.3c-.2-.2-.3-.3-.3-.4l.2-.2,4.2-1.5a.1.1,0,0,0,.1-.1h.1Z"/><path class="c" d="M5,31.4a1,1,0,0,0,.7.2h.2l2.6-.4c2.3-.2,2.4-.3,2.5-.5l.6-.5c0-.5-1.2-1-2.3-1H9L8.5,29a2.2,2.2,0,0,1-1-.4H6.7a.6.6,0,0,0-.4.5H6.2l-1,.7-.8.7a.5.5,0,0,0,0,.3c0,.2.1.4.2.4l.4.2"/><path class="c" d="M14.2,20.9a8.5,8.5,0,0,0-3.7-1A28.1,28.1,0,0,0,6,21.1H5.7l-2,1.4-.4.2c1.1.3,1.2.4,1.6.3l1.3-.4a3.7,3.7,0,0,1,1.5-.5l3.2-.5c1.2-.1,1.5.1,1.6,1a7.471,7.471,0,0,1,.1,1.1V37.3a5.5,5.5,0,0,1,0,1,2.252,2.252,0,0,1-.1.7H9.7l-2.5.4-1.4.2-1.1.3H4.4c-.2-.9-.5-1.9-.7-3V34.5h0c0-.4,0-.4-.1-.5v-.2l-.4-5.9L3,26V24.6a3.7,3.7,0,0,0-.8-1.9c-.9-.6-.9-.6-1.2-.6H0a10.7,10.7,0,0,1,1,4.1c.1.6.2,2,.4,4.6v1.1c.7,6.5.7,6.5.8,7a12.9,12.9,0,0,1,.1,1.5v.2c0,.5.1.6.7,1.2s1,.8,1.3.8.3,0,1.1-.6l.5-.2h.2l.6-.2,3.9-.6c1.4-.1,1.6-.1,1.9.3s1,1.3,1.5,1.2.4-.1.5-.5a6.3,6.3,0,0,0,.3-1.9q.1-1.7.1-4V24.8l.2-1.1.2-.3c.5-.4.5-.5.5-.9a2.3,2.3,0,0,0-1.5-1.7"/><path class="c" d="M220.7,26.4a9.7,9.7,0,0,1,2.5-3.5,9.5,9.5,0,0,0,2.1-2.1,25.5,25.5,0,0,1,5.5-5.4,4.5,4.5,0,0,1,2.1-.5,4.7,4.7,0,0,1,1.9.4c1.6.8,4.1,4.5,4.6,7.9.2,1.1.6,3.2.9,4.6a17.3,17.3,0,0,1,.4,4c0,.8,0,1.9-.1,3.3a30.1,30.1,0,0,1-1.4,9.8,62.5,62.5,0,0,1-5.3,10.3c-.4.6-2.4,2.8-3.4,4l-.4.4-.4.4h-.1a12,12,0,0,1,.9-2.4c1.9-4,4.4-13.4,5.2-20.3a46.5,46.5,0,0,0,.3-6,35.5,35.5,0,0,0-.1-3.7c-.7-7-1.5-9.8-2.7-9.8s-4.1,3.9-6.1,7a58,58,0,0,1-3.8,4.6,1.4,1.4,0,0,1-1,.4h-.2c-.7-.1-1-.2-1.5-1.3a2.8,2.8,0,0,1-.4-1.2.5.5,0,0,1,.1-.4.8.8,0,0,0,.2-.5Zm9.9-22.1a1.026,1.026,0,0,0-.5-.7c-.1,0-.4-.4-.5-.7a2.2,2.2,0,0,1-.2-.9,1.9,1.9,0,0,1,.7-1.5l.5-.2a6.3,6.3,0,0,1,1.7.7c1.9,1.1,3.4,2.4,3.5,3.6v.3c0,1.7-1.3,3.1-3.9,5.6l-.5.5L230,12.5l-.3.4-.2.2h-.1a30.2,30.2,0,0,1,2-5.1l.4-.8.2-.4V6.2a2.8,2.8,0,0,0,.2-.9c0-.2-.2-.2-.5-.3a2.1,2.1,0,0,1-1-.8"/><path class="c" d="M287.3,33.2a18.2,18.2,0,0,1,.2-2.2,40,40,0,0,1,1-4.8c.6-2.2,3.3-8.3,4.2-9.3a.5.5,0,0,1,.4-.3h.2a1.3,1.3,0,0,1,.5,1.1,17,17,0,0,1-1.2,4.3,53.49,53.49,0,0,0-1.7,5.2,26.5,26.5,0,0,0-.6,6,11.1,11.1,0,0,0,.2,2.4l.3,1.2,1-.4,2.2-.7,2.8-.7a29.4,29.4,0,0,1,7.8-1.2h1.5c3.1.1,5.1.5,5.1,1a.3.3,0,0,0,.4.3,2.7,2.7,0,0,1,1.2.9,3.2,3.2,0,0,1,.8,2.1,4,4,0,0,1-.5,1.7,42.4,42.4,0,0,1-9.5,10.6l-1,.7-.5.4-.4.4h-.2l-2.2,1.6a13.6,13.6,0,0,1-5,2.2h-.5l-.8.2-.8.2H292a3.593,3.593,0,0,1,1.1-1,127.8,127.8,0,0,0,10-9.2l1.5-1.6a9.5,9.5,0,0,0,1.2-1.6,9.8,9.8,0,0,1,1.4-1.9,11.1,11.1,0,0,0,1-1.6l.9-1.6a.8.8,0,0,0,.2-.4c0-.4-.6-.5-2.1-.5a23.286,23.286,0,0,0-8.3,2c-3.9,1.6-4.7,2.1-4.7,3.1s-.4,1.2-1.3,1.4h-.2c-.4,0-1-.4-2.4-1.6s-2-1.8-2-2.6a21.1,21.1,0,0,0-.6-3.2,8.8,8.8,0,0,1-.5-2.7M293.9.3a1.6,1.6,0,0,1,.8-.3c.5,0,1.2.4,2.3,1.5a5.441,5.441,0,0,1,1.9,3.3,2.3,2.3,0,0,1-1.6,2A7.4,7.4,0,0,0,295.4,8c-.5.5-.8.7-1.1.7s-.2-.1-.2-.4a4.6,4.6,0,0,1,.4-1.6,5.7,5.7,0,0,0,.4-2.1,4.6,4.6,0,0,0-.9-2.7L293.3.8Z"/><path class="c" d="M138.1,23.1c1.4,1.3,1.7,1.5,2.4,1.5s1.8-.4,6.7-2.8l3.8-2,1.1-.5a4.9,4.9,0,0,1-.1-.8l.2-3.5c-.1-2.6-.1-4.4-.1-4.9-.1-2.8-.4-3.3-2.8-4.6a2.3,2.3,0,0,1,2.4-1.9,7.4,7.4,0,0,1,3.7,1l1.8,1.2a2.2,2.2,0,0,1,.2,1c0,.3-.3.6-1,.9V9.9a21,21,0,0,0-.8,6.6c0,.6.2.9.7.9s.3,0,2.2-1.3a1.9,1.9,0,0,1,1.1-.3,4.9,4.9,0,0,1,2.6,1c-.1,1.5-.1,1.5-2.6,2.2L157,20.4l-1.1.5v.5l.7.3c1.1.5,1.5.9,1.5,1.7s0,.7-1.3,2a11.3,11.3,0,0,0-1.3,2q-.2,1-.4,2.6a24.1,24.1,0,0,0,6.4-4.2h.2c-.5,1.6-1.6,2.9-4.4,5.3a8.9,8.9,0,0,0-2.2,2,11.7,11.7,0,0,0-.1,1.3V53.6a3,3,0,0,1-.2.7,8.146,8.146,0,0,1-.2.9,1.845,1.845,0,0,1-1.3,1.5h-.8a3.4,3.4,0,0,1-.9-.9,2.7,2.7,0,0,1-.2-.7v-.6l-1.2-3.8a3.7,3.7,0,0,1,.3-1c1.5-2.6,1.8-5.7,1.8-13a4.9,4.9,0,0,0-.2-1.7l-.5.2-.2.2-2.4,2-2.5,2.7c-1.3,1.9-1.5,2.1-1.9,2.3l-.9.4c-.9,0-1.9-2.3-1.9-4.3a1.9,1.9,0,0,1,.8-1.6c.1-.1.1-.1,1.6-.3h.1l1-.7,1.3-.9,4.8-7.3c.6-.9.6-.9.6-2.6a10.7,10.7,0,0,0-.1-2.2l-.4.3L150,24.4l-1.3.9L144.8,29a2.4,2.4,0,0,1-1.5.9c-.6,0-1.5-.4-3.2-1.5a5.3,5.3,0,0,1-2.4-2.4Zm47,20.3h.7c.6-.1.8-.2.8-.7s-2.3-4.9-3.2-4.9a23,23,0,0,0-5.1,2.2l-2,1.1-3.2,1.4a2.3,2.3,0,0,0-.9.7c-1.8,2-1.8,2-2.7,2-3.3,0-5.1-1.6-5.1-4.4,0-.7,0-.7,1.7-2l.4-.7.9-.8.4-.7.7-.9,2-3.7,1.1-2,1.3-1.9,1.1-1.8.9-1.2,1.2-1.9,1.3-1.5.7-1.1.7-.6,1.3-1.6.9-1.1c2-3,2-3,2-3.4s-.7-1.1-1.6-1.7l-1.7-.6-1.1-.5c1.5-1.2,1.9-1.4,3.1-1.4a11,11,0,0,1,5.1,2.1l1.6,1.1c.9.4,1.2.7,1.2,1.5a1.8,1.8,0,0,1-.5,1.2l-3.6.9a3.4,3.4,0,0,0-1.3.5l-1.5,1.5-2,1.9-1.1,1.1c-1.7,1.6-4,4.4-4,4.9a5.8,5.8,0,0,0,.3,1.3,2.3,2.3,0,0,1,.1.7c0,1.3,0,1.4-1.3,3.2l-.8,1.3-.8,1.2-1,2-1.4,2.7a4.5,4.5,0,0,0-.5,1.3l12.6-3.8a11.7,11.7,0,0,0-2-2.8l-.7-.7-.7-.5-.5-.6h.1l.8.2a5.1,5.1,0,0,1,1.7.5l.8.5a16.5,16.5,0,0,1,6.9,6.9c2.4,3.4,2.8,4,2.8,5.6,0,0-.1.9-.5,2.8h-1.2a1.3,1.3,0,0,1-1.1-.4l-1-.6-1.5-1.5-1.3-1.3a1.5,1.5,0,0,1-.6-.7ZM168.7,24.9a6,6,0,0,1-3.4-5.1,10.8,10.8,0,0,1,.5-4.3c1.1,1.6,2.2,2.6,3,2.6a6.5,6.5,0,0,0,3.9-2.2l-.3,1.1-.4.7-.4.7a14.5,14.5,0,0,0-1.3,4.2v.9L168.8,25Z"/></g></g></svg>